<?xml version="1.0" encoding="UTF-8"?>
<svg id="_Слой_1" data-name="Слой 1" xmlns="http://www.w3.org/2000/svg" viewBox="0 0 300.34 593.59">
  <defs>
    <style>
      .cls-1 {
        fill: #c2c2c4;
      }

      .cls-1, .cls-2, .cls-3, .cls-4, .cls-5 {
        fill-rule: evenodd;
      }

      .cls-6 {
        fill: #787a73;
      }

      .cls-2 {
        fill: #bab2b0;
      }

      .cls-3 {
        fill: #8f8f87;
      }

      .cls-4 {
        fill: #ebe3de;
      }

      .cls-5 {
        fill: #faf7f0;
      }

      .cls-7 {
        fill: #f58c63;
      }
    </style>
  </defs>
  <path class="cls-1" d="m232.65,587.23c7.23-2.43,10.94-26.85,15.68-41.41.23-.71.85-1.17,1.59-1.19s1.51.36,1.66,1.09l4.61,22.22c.17.83,1.13,1.23,1.96,1.05.83-.18,1.41-.91,1.36-1.76l-9.21-187.86-16.71,204.55c-.1,1.21-.41,2.31-.93,3.31h0Z"/>
  <path class="cls-2" d="m242.25,477.79l12.55-6.58,4.71,96.02c.04.85-.53,1.59-1.36,1.76-.83.18-1.79-.22-1.96-1.05l-4.61-22.22c-.15-.73-.92-1.11-1.66-1.09s-1.36.49-1.59,1.19c-4.73,14.56-8.44,38.98-15.68,41.41.52-1,.83-2.1.93-3.31l8.67-106.13h0Z"/>
  <path class="cls-5" d="m9.29,567.53l214.72,24.27c2.41.27,4.58-.37,6.45-1.91,1.87-1.54,2.92-3.55,3.12-5.96l16.71-204.55c.47-5.77-.76-10.85-3.81-15.77l-32.74-52.71c-4.45-7.16-11.37-11.41-19.77-12.14l-103.94-8.96c-8.31-.72-15.77,2.2-21.38,8.37l-37.32,41.03c-3.82,4.2-5.93,8.87-6.57,14.51L1.69,557.98c-.53,4.72,2.88,9.01,7.61,9.54h0Z"/>
  <path class="cls-4" d="m13.66,452.05c4.33,1.38,10.39,2.76,18.85,3.95,29.7,4.18,54.33-3.42,85.97,7,16.33,5.38,22.38,12.39,50.19,16.21,38.01,5.22,35.06-5.23,68.69-1.89,1.81.18,3.42.34,4.89.48l-8.67,106.13c-.2,2.42-1.25,4.42-3.12,5.96-1.87,1.54-4.04,2.18-6.45,1.91l-214.72-24.27c-4.72-.53-8.14-4.82-7.61-9.54l11.97-105.93h0Zm228.68,24.68h0s0,0,0,0h0Z"/>
  <path class="cls-3" d="m242.38,568.85h14.56c-.38-.18-.67-.49-.76-.91l-4.61-22.22c-.15-.73-.92-1.11-1.66-1.09s-1.36.49-1.59,1.19c-2.05,6.31-3.91,14.48-5.95,21.9v1.14h0Z"/>
  <path class="cls-1" d="m232.65,587.23c7.23-2.43,10.94-26.85,15.68-41.41.23-.71.85-1.17,1.59-1.19s1.51.36,1.66,1.09l4.61,22.22c.17.83,1.13,1.23,1.96,1.05.83-.18,1.41-.91,1.36-1.76l-9.21-187.86-16.71,204.55c-.1,1.21-.41,2.31-.93,3.31h0Z"/>
  <path class="cls-2" d="m242.25,477.79l12.55-6.58,4.71,96.02c.04.85-.53,1.59-1.36,1.76-.83.18-1.79-.22-1.96-1.05l-4.61-22.22c-.15-.73-.92-1.11-1.66-1.09s-1.36.49-1.59,1.19c-4.73,14.56-8.44,38.98-15.68,41.41.52-1,.83-2.1.93-3.31l8.67-106.13h0Z"/>
  <path class="cls-5" d="m227.87,2.49l47.23,24.43c1.83.95,3.16,2.21,4.19,3.99l6.94,11.93c1.83,3.15,1.92,6.73.25,9.96l-19.56,37.8c-1.68,3.24-4.64,5.23-8.27,5.56l-13.75,1.23c-2.05.18-3.85-.17-5.68-1.12l-47.23-24.43c-3.38-1.75-4.71-5.93-2.96-9.3l29.54-57.09c1.75-3.38,5.93-4.71,9.3-2.96h0Z"/>
  <path class="cls-7" d="m241.6,53.55c4.19.06,6.71-.75,8.43-4.07,1.9-3.67.46-8.2-3.21-10.1-6.65-3.44-12.74.97-22.98,4.98,2.56,10.35,2.55,18.19,9.21,21.64,3.67,1.9,8.2.46,10.1-3.21,1.72-3.33.92-5.85-1.55-9.24h0Z"/>
  <path class="cls-6" d="m278.49,71.99c31.12,30.21,24.6,52.04,7.59,69.87-7.96,8.35-18.24,15.76-27.93,22.74-10.19,7.34-19.73,14.22-24.99,21.09-.84,1.1-1.63,2.19-2.37,3.26,11.85.76,22.76,4.84,30.78,10.45,4.46,3.12,7.91,7,10.23,11.21,2.35,4.25,3.55,8.84,3.51,13.33-.04,4.53-1.35,8.95-4.05,12.81-2.07,2.96-4.95,5.58-8.68,7.64-6.9,3.81-15.54,3.87-23.37.88-5.09-1.94-9.86-5.18-13.58-9.52-3.73-4.34-6.4-9.79-7.3-16.12-1.12-7.88.51-17.13,6.29-27.33-1.84.07-3.7.23-5.56.48-12.41,1.68-25.15,7.61-35.98,19.84-6.51,7.35-12.33,16.99-16.99,29.35-4.26,11.3-7.55,24.88-9.49,41.08-.54,4.49-1.89,7.91-3.39,10.45l40.99,3.53c4.47.39,8.56,1.71,12.12,3.9,3.57,2.19,6.6,5.23,8.97,9.04l32.74,52.71c1.62,2.61,2.76,5.28,3.44,8.07.68,2.8.88,5.69.63,8.74l-.11,1.32,9.14,186.31c.04.85-.23,1.64-.71,2.26-.49.63-1.19,1.09-2.02,1.26h0s0,0,0,0h-.01s0,0,0,0h0c-.42.09-.86.1-1.29.03l-13.84-.12c-2.45,8.46-5.27,15.66-9.21,17.85-.61,1.04-1.41,1.98-2.4,2.79-1.12.92-2.33,1.57-3.63,1.96-1.3.38-2.67.5-4.1.34l-214.72-24.27c-2.84-.32-5.28-1.77-6.93-3.84-1.65-2.07-2.52-4.77-2.2-7.6l23.09-204.27c.34-3,1.07-5.75,2.23-8.32,1.16-2.57,2.74-4.93,4.78-7.17l37.32-41.03c2.99-3.28,6.47-5.71,10.32-7.21,3.85-1.51,8.05-2.1,12.47-1.72l59.1,5.1c1.58-2.21,3.22-5.6,3.81-10.52,1.98-16.48,5.33-30.33,9.69-41.89,4.82-12.77,10.86-22.76,17.64-30.42,11.44-12.93,24.94-19.19,38.09-20.97,2.73-.37,5.45-.55,8.13-.55,1.11-1.72,2.34-3.46,3.69-5.23,5.56-7.26,15.3-14.28,25.72-21.79,9.56-6.89,19.68-14.18,27.44-22.32,15.57-16.33,21.54-36.38-6.75-64.3l-8.39,16.21c-.97,1.88-2.33,3.4-3.98,4.51-1.64,1.1-3.57,1.78-5.68,1.97l-13.75,1.23c-1.2.11-2.32.06-3.4-.16-1.09-.22-2.15-.59-3.22-1.14l-47.23-24.43h0c-2.11-1.09-3.58-2.94-4.25-5.05-.67-2.11-.54-4.46.55-6.57h0s29.54-57.09,29.54-57.09c1.09-2.11,2.94-3.58,5.05-4.25,2.11-.67,4.46-.54,6.57.55l47.23,24.43c1.06.55,1.98,1.2,2.79,1.97.81.77,1.5,1.66,2.1,2.69l6.94,11.93c1.06,1.83,1.62,3.79,1.67,5.77.05,1.98-.41,3.97-1.38,5.84l-9.52,18.39h0Zm-89.82,325.78c.1-.95.96-1.63,1.9-1.52.95.1,1.63.96,1.52,1.9-.04.31-.09.64-.15.99-.06.33-.13.65-.22.97-.87,3.33-2.91,6.12-5.61,7.98-2.67,1.83-5.98,2.74-9.44,2.35-3.31-.37-6.21-1.88-8.38-4.08-2.2-2.24-3.64-5.22-3.94-8.47-.04-.47-.06-.94-.06-1.42,0-.5.03-.98.08-1.44.1-.95.96-1.63,1.9-1.52.95.1,1.63.96,1.52,1.9-.04.39-.07.75-.07,1.09,0,.36.01.73.05,1.09.23,2.44,1.31,4.67,2.97,6.37,1.63,1.66,3.81,2.79,6.3,3.07,2.61.3,5.11-.39,7.12-1.77,2.04-1.4,3.57-3.5,4.22-6,.06-.24.12-.48.16-.73.04-.23.08-.47.11-.75h0Zm-45.68,21.08c-.1.95-.96,1.63-1.9,1.52-.95-.1-1.63-.96-1.52-1.9.02-.19.03-.36.03-.51s-.01-.32-.03-.51c-.21-1.91-1.6-3.79-3.76-5.31-2.3-1.62-5.44-2.8-8.99-3.2-3.4-.38-6.58,0-9.13.97-2.43.92-4.24,2.33-5.03,4.05-.01.02-.02.05-.04.07-.09.2-.16.41-.22.63-.07.23-.11.47-.14.72-.1.95-.96,1.63-1.9,1.52-.95-.1-1.63-.96-1.52-1.9.05-.43.13-.86.25-1.27.1-.37.24-.75.41-1.12.01-.03.03-.07.04-.1,1.18-2.56,3.68-4.59,6.95-5.83,3.04-1.15,6.78-1.62,10.72-1.17,4.14.47,7.84,1.87,10.59,3.8,2.96,2.08,4.88,4.81,5.21,7.75.03.27.05.57.05.89,0,.32-.02.62-.05.89h0Zm-51.88-32.11c.1-.95.96-1.63,1.9-1.52.95.1,1.63.96,1.52,1.9-.04.31-.09.64-.15.99-.06.33-.13.65-.22.97-.87,3.33-2.91,6.12-5.61,7.98-2.67,1.83-5.98,2.74-9.44,2.35-3.31-.37-6.21-1.88-8.38-4.08-2.2-2.24-3.63-5.22-3.94-8.47-.04-.47-.06-.94-.06-1.43,0-.5.03-.98.08-1.44.1-.95.96-1.63,1.9-1.52.95.1,1.63.96,1.52,1.9-.04.39-.07.75-.07,1.09,0,.36.01.73.05,1.09.23,2.44,1.31,4.67,2.97,6.37,1.63,1.66,3.81,2.79,6.3,3.07,2.61.3,5.11-.39,7.12-1.77,2.03-1.4,3.57-3.5,4.22-6,.06-.24.12-.48.16-.73.04-.23.08-.47.11-.75h0ZM268.41,53.67c.44-.84,1.47-1.18,2.32-.74.85.44,1.18,1.47.74,2.32l-11.23,21.7c-.44.84-1.47,1.18-2.32.74-.84-.44-1.18-1.47-.74-2.32l11.23-21.7h0Zm5.9-25.22l-47.23-24.43c-1.27-.66-2.69-.74-3.96-.33-1.26.4-2.37,1.28-3.03,2.55l-29.54,57.09h0c-.66,1.27-.74,2.69-.33,3.96.4,1.26,1.28,2.37,2.55,3.03h0s47.23,24.43,47.23,24.43c.76.4,1.52.67,2.3.82.79.15,1.59.19,2.45.12l13.75-1.23c1.52-.14,2.89-.62,4.06-1.4,1.16-.78,2.13-1.87,2.83-3.23l19.56-37.8c.7-1.36,1.04-2.78,1-4.18-.03-1.4-.44-2.8-1.21-4.13l-6.94-11.93c-.43-.75-.93-1.38-1.5-1.92-.57-.54-1.23-1-2-1.4h0Zm-20.12,538.79l-4.33-20.87c-1.32,4.07-2.55,8.84-3.79,13.69-.61,2.37-1.22,4.76-1.85,7.09l9.97.09h0Zm-7.92-20.94h-7.79s-2.89,35.36-2.89,35.36c2.66-4.98,4.94-13.84,7.15-22.45,1.17-4.56,2.33-9.06,3.53-12.91h0Zm-7.51-3.45h10.77v.06c.08,0,.16-.01.24-.02h0c.73-.02,1.49.18,2.09.58.64.42,1.13,1.06,1.3,1.89l4.53,21.84-7.85-160.01-11.09,135.66h0Zm-7.91,44.22c.02-.22.08-.44.19-.64.2-.38.36-.8.49-1.25.12-.44.21-.91.25-1.4l16.72-204.55h0c.02-.27.1-.52.23-.74.13-2.43-.06-4.71-.59-6.9-.58-2.42-1.59-4.75-3.02-7.06l-32.74-52.71c-2.08-3.35-4.73-6.02-7.84-7.92-3.11-1.91-6.68-3.06-10.61-3.4-37.72-3.25-64.93-5.6-103.94-8.96-3.89-.34-7.58.18-10.93,1.49-3.36,1.31-6.4,3.44-9.03,6.32l-37.32,41.03c-1.79,1.97-3.17,4.03-4.18,6.26-1.01,2.23-1.65,4.64-1.95,7.28L3.49,558.18c-.21,1.89.36,3.7,1.47,5.08,1.1,1.38,2.73,2.35,4.61,2.56l214.72,24.27c.98.11,1.9.04,2.75-.21.86-.25,1.66-.69,2.42-1.31.55-.45,1.01-.95,1.38-1.5h0Zm-2.21-394.77c-6.18,10.16-7.96,19.25-6.88,26.86.8,5.65,3.18,10.5,6.51,14.37,3.33,3.88,7.61,6.78,12.19,8.53,6.92,2.64,14.51,2.62,20.49-.68,3.26-1.8,5.75-4.06,7.52-6.59,2.28-3.26,3.39-7.01,3.43-10.87.04-3.89-1.03-7.91-3.1-11.65-2.08-3.77-5.17-7.25-9.18-10.05-7.99-5.59-19.04-9.56-30.98-9.92h0Z"/>
</svg>