<?xml version="1.0" standalone="no"?>
<!DOCTYPE svg PUBLIC "-//W3C//DTD SVG 20010904//EN"
 "http://www.w3.org/TR/2001/REC-SVG-20010904/DTD/svg10.dtd">
<svg version="1.0" xmlns="http://www.w3.org/2000/svg"
 width="32.000000pt" height="32.000000pt" viewBox="0 0 32.000000 32.000000"
 preserveAspectRatio="xMidYMid meet">

<g transform="translate(0.000000,32.000000) scale(0.100000,-0.100000)"
fill="#000000" stroke="none">
<path d="M202 278 c-7 -7 -12 -18 -12 -25 0 -9 -17 -13 -60 -13 -33 0 -60 4
-60 10 0 6 -10 9 -22 9 -16 -1 -18 -3 -6 -6 22 -6 52 -138 42 -187 -6 -32 -4
-36 16 -36 13 0 24 8 27 20 4 16 14 20 44 20 33 0 39 -3 39 -21 0 -15 5 -20
23 -17 14 2 22 10 22 23 0 18 -8 20 -72 23 -90 4 -97 22 -8 22 70 0 85 11 85
63 0 14 7 30 15 37 18 15 20 61 3 78 -7 7 -24 12 -38 12 -14 0 -31 -5 -38 -12z
m68 -13 c26 -32 -13 -81 -47 -59 -23 14 -28 41 -13 59 16 19 44 19 60 0z m-72
-55 c7 -11 21 -20 32 -20 22 0 25 -16 10 -54 -9 -24 -14 -26 -74 -26 l-64 0
-11 50 c-15 72 -16 70 42 70 41 0 55 -4 65 -20z m-87 -163 c-13 -13 -26 -3
-16 12 3 6 11 8 17 5 6 -4 6 -10 -1 -17z m130 0 c-13 -13 -26 -3 -16 12 3 6
11 8 17 5 6 -4 6 -10 -1 -17z"/>
<path d="M224 249 c-10 -17 13 -36 27 -22 12 12 4 33 -11 33 -5 0 -12 -5 -16
-11z"/>
</g>
</svg>
