<svg width="18" height="18" viewBox="0 0 18 18" fill="none" xmlns="http://www.w3.org/2000/svg">
<mask id="mask0_211_1238" style="mask-type:alpha" maskUnits="userSpaceOnUse" x="0" y="0" width="18" height="18">
<rect width="18" height="18" fill="#D9D9D9"/>
</mask>
<g mask="url(#mask0_211_1238)">
<path d="M4.49989 14.25H13.4999L12.4311 6.75H5.56865L4.49989 14.25ZM8.9999 5.25C9.2124 5.25 9.39052 5.17813 9.53427 5.03438C9.67802 4.89062 9.7499 4.7125 9.7499 4.5C9.7499 4.2875 9.67802 4.10938 9.53427 3.96563C9.39052 3.82188 9.2124 3.75 8.9999 3.75C8.7874 3.75 8.60927 3.82188 8.46552 3.96563C8.32177 4.10938 8.2499 4.2875 8.2499 4.5C8.2499 4.7125 8.32177 4.89062 8.46552 5.03438C8.60927 5.17813 8.7874 5.25 8.9999 5.25ZM11.1186 5.25H12.4311C12.8061 5.25 13.1311 5.375 13.4061 5.625C13.6811 5.875 13.8499 6.18125 13.9124 6.54375L14.9811 14.0438C15.0436 14.4938 14.928 14.8906 14.6343 15.2344C14.3405 15.5781 13.9624 15.75 13.4999 15.75H4.49989C4.03739 15.75 3.65927 15.5781 3.36552 15.2344C3.07177 14.8906 2.95614 14.4938 3.01864 14.0438L4.08739 6.54375C4.14989 6.18125 4.31864 5.875 4.59364 5.625C4.86864 5.375 5.19365 5.25 5.56865 5.25H6.88115C6.84364 5.125 6.81239 5.00312 6.7874 4.88438C6.76239 4.76562 6.7499 4.6375 6.7499 4.5C6.7499 3.875 6.96865 3.34375 7.40615 2.90625C7.84365 2.46875 8.3749 2.25 8.9999 2.25C9.6249 2.25 10.1561 2.46875 10.5936 2.90625C11.0311 3.34375 11.2499 3.875 11.2499 4.5C11.2499 4.6375 11.2374 4.76562 11.2124 4.88438C11.1874 5.00312 11.1561 5.125 11.1186 5.25Z" fill="#282828"/>
</g>
</svg>
