<svg width="18" height="18" viewBox="0 0 18 18" fill="none" xmlns="http://www.w3.org/2000/svg">
<mask id="mask0_166_88" style="mask-type:alpha" maskUnits="userSpaceOnUse" x="0" y="0" width="18" height="18">
<rect width="18" height="18" fill="#fff"/>
</mask>
<g mask="url(#mask0_166_88)">
<path d="M3.75 16.5C3.3375 16.5 2.98425 16.3533 2.69025 16.0597C2.39675 15.7657 2.25 15.4125 2.25 15V6C2.25 5.5875 2.39675 5.2345 2.69025 4.941C2.98425 4.647 3.3375 4.5 3.75 4.5H5.25C5.25 3.4625 5.61575 2.578 6.34725 1.8465C7.07825 1.1155 7.9625 0.75 9 0.75C10.0375 0.75 10.922 1.1155 11.6535 1.8465C12.3845 2.578 12.75 3.4625 12.75 4.5H14.25C14.6625 4.5 15.0157 4.647 15.3097 4.941C15.6033 5.2345 15.75 5.5875 15.75 6V15C15.75 15.4125 15.6033 15.7657 15.3097 16.0597C15.0157 16.3533 14.6625 16.5 14.25 16.5H3.75ZM3.75 15H14.25V6H3.75V15ZM9 10.5C10.0375 10.5 10.922 10.1342 11.6535 9.40275C12.3845 8.67175 12.75 7.7875 12.75 6.75H11.25C11.25 7.375 11.0312 7.90625 10.5938 8.34375C10.1562 8.78125 9.625 9 9 9C8.375 9 7.84375 8.78125 7.40625 8.34375C6.96875 7.90625 6.75 7.375 6.75 6.75H5.25C5.25 7.7875 5.61575 8.67175 6.34725 9.40275C7.07825 10.1342 7.9625 10.5 9 10.5ZM6.75 4.5H11.25C11.25 3.875 11.0312 3.34375 10.5938 2.90625C10.1562 2.46875 9.625 2.25 9 2.25C8.375 2.25 7.84375 2.46875 7.40625 2.90625C6.96875 3.34375 6.75 3.875 6.75 4.5Z" fill="#000000"/>
</g>
</svg>
