<svg width="18" height="18" viewBox="0 0 18 18" fill="none" xmlns="http://www.w3.org/2000/svg">
<mask id="mask0_166_89" style="mask-type:alpha" maskUnits="userSpaceOnUse" x="0" y="0" width="18" height="18">
<rect width="18" height="18" fill="#D9D9D9"/>
</mask>
<g mask="url(#mask0_166_89)">
<path d="M9 9C8.175 9 7.46875 8.70625 6.88125 8.11875C6.29375 7.53125 6 6.825 6 6C6 5.175 6.29375 4.46875 6.88125 3.88125C7.46875 3.29375 8.175 3 9 3C9.825 3 10.5312 3.29375 11.1187 3.88125C11.7063 4.46875 12 5.175 12 6C12 6.825 11.7063 7.53125 11.1187 8.11875C10.5312 8.70625 9.825 9 9 9ZM3 15V12.9C3 12.475 3.1095 12.0843 3.3285 11.7277C3.547 11.3717 3.8375 11.1 4.2 10.9125C4.975 10.525 5.7625 10.2343 6.5625 10.0402C7.3625 9.84675 8.175 9.75 9 9.75C9.825 9.75 10.6375 9.84675 11.4375 10.0402C12.2375 10.2343 13.025 10.525 13.8 10.9125C14.1625 11.1 14.453 11.3717 14.6715 11.7277C14.8905 12.0843 15 12.475 15 12.9V15H3ZM4.5 13.5H13.5V12.9C13.5 12.7625 13.4658 12.6375 13.3973 12.525C13.3283 12.4125 13.2375 12.325 13.125 12.2625C12.45 11.925 11.7688 11.6718 11.0812 11.5028C10.3937 11.3342 9.7 11.25 9 11.25C8.3 11.25 7.60625 11.3342 6.91875 11.5028C6.23125 11.6718 5.55 11.925 4.875 12.2625C4.7625 12.325 4.672 12.4125 4.6035 12.525C4.5345 12.6375 4.5 12.7625 4.5 12.9V13.5ZM9 7.5C9.4125 7.5 9.76575 7.353 10.0598 7.059C10.3533 6.7655 10.5 6.4125 10.5 6C10.5 5.5875 10.3533 5.2345 10.0598 4.941C9.76575 4.647 9.4125 4.5 9 4.5C8.5875 4.5 8.2345 4.647 7.941 4.941C7.647 5.2345 7.5 5.5875 7.5 6C7.5 6.4125 7.647 6.7655 7.941 7.059C8.2345 7.353 8.5875 7.5 9 7.5Z" fill="black"/>
</g>
</svg>
