<svg width="18" height="18" viewBox="0 0 18 18" fill="none" xmlns="http://www.w3.org/2000/svg">
<mask id="mask0_211_1203" style="mask-type:alpha" maskUnits="userSpaceOnUse" x="0" y="0" width="18" height="18">
<rect width="18" height="18" fill="#D9D9D9"/>
</mask>
<g mask="url(#mask0_211_1203)">
<path d="M4.05 14.7C3.4875 14.1375 3.04688 13.4875 2.72812 12.75C2.40937 12.0125 2.25 11.25 2.25 10.4625C2.25 9.675 2.4 8.89687 2.7 8.12812C3 7.35937 3.4875 6.6375 4.1625 5.9625C4.6 5.525 5.14062 5.15 5.78438 4.8375C6.42812 4.525 7.19063 4.27812 8.07188 4.09687C8.95313 3.91562 9.95938 3.80625 11.0906 3.76875C12.2219 3.73125 13.4875 3.775 14.8875 3.9C14.9875 5.225 15.0188 6.44375 14.9813 7.55625C14.9438 8.66875 14.8406 9.67187 14.6719 10.5656C14.5031 11.4594 14.2656 12.2406 13.9594 12.9094C13.6531 13.5781 13.275 14.1375 12.825 14.5875C12.1625 15.25 11.4594 15.7344 10.7156 16.0406C9.97188 16.3469 9.2125 16.5 8.4375 16.5C7.625 16.5 6.83125 16.3406 6.05625 16.0219C5.28125 15.7031 4.6125 15.2625 4.05 14.7ZM6.15 14.4C6.5125 14.6125 6.88438 14.7656 7.26562 14.8594C7.64687 14.9531 8.0375 15 8.4375 15C9.0125 15 9.58125 14.8844 10.1438 14.6531C10.7063 14.4219 11.2438 14.05 11.7563 13.5375C11.9812 13.3125 12.2094 12.9969 12.4406 12.5906C12.6719 12.1844 12.8719 11.6531 13.0406 10.9969C13.2094 10.3406 13.3375 9.54687 13.425 8.61562C13.5125 7.68437 13.525 6.575 13.4625 5.2875C12.85 5.2625 12.1594 5.25312 11.3906 5.25937C10.6219 5.26562 9.85625 5.325 9.09375 5.4375C8.33125 5.55 7.60625 5.73125 6.91875 5.98125C6.23125 6.23125 5.66875 6.575 5.23125 7.0125C4.66875 7.575 4.28125 8.13125 4.06875 8.68125C3.85625 9.23125 3.75 9.7625 3.75 10.275C3.75 11.0125 3.89062 11.6594 4.17188 12.2156C4.45312 12.7719 4.7 13.1625 4.9125 13.3875C5.4375 12.3875 6.13125 11.4281 6.99375 10.5094C7.85625 9.59062 8.8625 8.8375 10.0125 8.25C9.1125 9.0375 8.32812 9.92812 7.65938 10.9219C6.99062 11.9156 6.4875 13.075 6.15 14.4Z" fill="#282828"/>
</g>
</svg>
