<svg width="18" height="18" viewBox="0 0 18 18" fill="none" xmlns="http://www.w3.org/2000/svg">
<mask id="mask0_211_1237" style="mask-type:alpha" maskUnits="userSpaceOnUse" x="0" y="0" width="18" height="18">
<rect width="18" height="18" fill="#D9D9D9"/>
</mask>
<g mask="url(#mask0_211_1237)">
<path d="M3 10.35C3 9.1 3.49688 7.74063 4.49063 6.27188C5.48438 4.80313 6.9875 3.2125 9 1.5C10.475 2.75 11.6719 3.9375 12.5906 5.0625C13.5094 6.1875 14.1687 7.25625 14.5688 8.26875H12.9375C12.5875 7.55625 12.0875 6.80313 11.4375 6.00938C10.7875 5.21563 9.975 4.375 9 3.4875C7.5125 4.85 6.39062 6.10625 5.63438 7.25625C4.87813 8.40625 4.5 9.4375 4.5 10.35C4.5 11.6875 4.925 12.7969 5.775 13.6781C6.625 14.5594 7.7 15 9 15V16.5C7.2875 16.5 5.85938 15.9125 4.71563 14.7375C3.57188 13.5625 3 12.1 3 10.35ZM11.1 16.8563L10.7812 16.1437C10.6813 15.9312 10.6094 15.7094 10.5656 15.4781C10.5219 15.2469 10.5 15.0125 10.5 14.775C10.5 14.5 10.5312 14.2281 10.5938 13.9594C10.6562 13.6906 10.75 13.4312 10.875 13.1812C10.975 12.9688 11.0625 12.7531 11.1375 12.5344C11.2125 12.3156 11.25 12.0875 11.25 11.85C11.25 11.6625 11.2281 11.4812 11.1844 11.3062C11.1406 11.1312 11.0813 10.9563 11.0063 10.7812L10.7437 10.2188L11.775 9.76875L12.0938 10.4438C12.1938 10.6562 12.2656 10.8812 12.3094 11.1187C12.3531 11.3562 12.375 11.6 12.375 11.85C12.375 12.125 12.3438 12.3938 12.2812 12.6562C12.2188 12.9187 12.125 13.175 12 13.425C11.9 13.6375 11.8125 13.8562 11.7375 14.0812C11.6625 14.3062 11.625 14.5375 11.625 14.775C11.625 14.95 11.6438 15.1219 11.6812 15.2906C11.7188 15.4594 11.775 15.625 11.85 15.7875L12.1313 16.4062L11.1 16.8563ZM13.35 16.8563L13.0312 16.1437C12.9312 15.9312 12.8594 15.7094 12.8156 15.4781C12.7719 15.2469 12.75 15.0125 12.75 14.775C12.75 14.5 12.7812 14.2281 12.8438 13.9594C12.9062 13.6906 13 13.4312 13.125 13.1812C13.225 12.9688 13.3125 12.7531 13.3875 12.5344C13.4625 12.3156 13.5 12.0875 13.5 11.85C13.5 11.6625 13.4781 11.4812 13.4344 11.3062C13.3906 11.1312 13.3313 10.9563 13.2563 10.7812L12.9937 10.2188L14.025 9.76875L14.3438 10.4438C14.4438 10.6687 14.5156 10.8969 14.5594 11.1281C14.6031 11.3594 14.625 11.6 14.625 11.85C14.625 12.125 14.5938 12.3938 14.5312 12.6562C14.4688 12.9187 14.375 13.175 14.25 13.425C14.15 13.6375 14.0625 13.8562 13.9875 14.0812C13.9125 14.3062 13.875 14.5375 13.875 14.775C13.875 14.95 13.8938 15.1219 13.9312 15.2906C13.9688 15.4594 14.025 15.625 14.1 15.7875L14.3813 16.4062L13.35 16.8563ZM15.6 16.8563L15.2812 16.1437C15.1812 15.9312 15.1094 15.7094 15.0656 15.4781C15.0219 15.2469 15 15.0125 15 14.775C15 14.5 15.0312 14.2281 15.0938 13.9594C15.1562 13.6906 15.25 13.4312 15.375 13.1812C15.475 12.9688 15.5625 12.7531 15.6375 12.5344C15.7125 12.3156 15.75 12.0875 15.75 11.85C15.75 11.6625 15.7281 11.4812 15.6844 11.3062C15.6406 11.1312 15.5813 10.9563 15.5063 10.7812L15.2438 10.2188L16.275 9.76875L16.5938 10.4438C16.6938 10.6562 16.7656 10.8812 16.8094 11.1187C16.8531 11.3562 16.875 11.6 16.875 11.85C16.875 12.125 16.8438 12.3969 16.7812 12.6656C16.7188 12.9344 16.625 13.1938 16.5 13.4438C16.4 13.6562 16.3125 13.8719 16.2375 14.0906C16.1625 14.3094 16.125 14.5375 16.125 14.775C16.125 14.95 16.1438 15.1219 16.1813 15.2906C16.2188 15.4594 16.275 15.625 16.35 15.7875L16.6313 16.4062L15.6 16.8563Z" fill="#282828"/>
</g>
</svg>
