<svg width="18" height="18" viewBox="0 0 18 18" fill="none" xmlns="http://www.w3.org/2000/svg">
<mask id="mask0_395_1597" style="mask-type:alpha" maskUnits="userSpaceOnUse" x="0" y="0" width="18" height="18">
<rect width="18" height="18" fill="#D9D9D9"/>
</mask>
<g mask="url(#mask0_395_1597)">
<path d="M8.25006 15C8.03756 15 7.85944 14.9281 7.71569 14.7844C7.57194 14.6406 7.50006 14.4625 7.50006 14.25V9.75L3.15006 4.2C2.96256 3.95 2.93444 3.6875 3.06569 3.4125C3.19694 3.1375 3.42506 3 3.75006 3H14.2501C14.5751 3 14.8032 3.1375 14.9344 3.4125C15.0657 3.6875 15.0376 3.95 14.8501 4.2L10.5001 9.75V14.25C10.5001 14.4625 10.4282 14.6406 10.2844 14.7844C10.1407 14.9281 9.96256 15 9.75006 15H8.25006ZM9.00006 9.225L12.7126 4.5H5.28756L9.00006 9.225Z" fill="#282828"/>
</g>
</svg>
