<svg width="18" height="18" viewBox="0 0 18 18" fill="none" xmlns="http://www.w3.org/2000/svg">
<mask id="mask0_211_1224" style="mask-type:alpha" maskUnits="userSpaceOnUse" x="0" y="0" width="18" height="18">
<rect width="18" height="18" fill="#D9D9D9"/>
</mask>
<g mask="url(#mask0_211_1224)">
<path d="M9.0002 16.5C8.0627 16.5 7.18457 16.3219 6.36582 15.9656C5.54707 15.6094 4.83457 15.1281 4.22832 14.5219C3.62207 13.9156 3.14082 13.2031 2.78457 12.3844C2.42832 11.5656 2.2502 10.6875 2.2502 9.74998C2.2502 8.81248 2.42832 7.93436 2.78457 7.11561C3.14082 6.29686 3.62207 5.58436 4.22832 4.97811C4.83457 4.37186 5.54707 3.89061 6.36582 3.53436C7.18457 3.17811 8.0627 2.99998 9.0002 2.99998C9.9377 2.99998 10.8158 3.17811 11.6346 3.53436C12.4533 3.89061 13.1658 4.37186 13.7721 4.97811C14.3783 5.58436 14.8596 6.29686 15.2158 7.11561C15.5721 7.93436 15.7502 8.81248 15.7502 9.74998C15.7502 10.6875 15.5721 11.5656 15.2158 12.3844C14.8596 13.2031 14.3783 13.9156 13.7721 14.5219C13.1658 15.1281 12.4533 15.6094 11.6346 15.9656C10.8158 16.3219 9.9377 16.5 9.0002 16.5ZM11.1002 12.9L12.1502 11.85L9.7502 9.44998V5.99998H8.2502V10.05L11.1002 12.9ZM4.2002 1.76248L5.2502 2.81248L2.0627 5.99998L1.0127 4.94998L4.2002 1.76248ZM13.8002 1.76248L16.9877 4.94998L15.9377 5.99998L12.7502 2.81248L13.8002 1.76248ZM9.0002 15C10.4627 15 11.7033 14.4906 12.7221 13.4719C13.7408 12.4531 14.2502 11.2125 14.2502 9.74998C14.2502 8.28748 13.7408 7.04686 12.7221 6.02811C11.7033 5.00936 10.4627 4.49998 9.0002 4.49998C7.5377 4.49998 6.29707 5.00936 5.27832 6.02811C4.25957 7.04686 3.7502 8.28748 3.7502 9.74998C3.7502 11.2125 4.25957 12.4531 5.27832 13.4719C6.29707 14.4906 7.5377 15 9.0002 15Z" fill="#282828"/>
</g>
</svg>
