<svg width="18" height="18" viewBox="0 0 18 18" fill="none" xmlns="http://www.w3.org/2000/svg">
<mask id="mask0_211_1217" style="mask-type:alpha" maskUnits="userSpaceOnUse" x="0" y="0" width="18" height="18">
<rect width="18" height="18" fill="#D9D9D9"/>
</mask>
<g mask="url(#mask0_211_1217)">
<path d="M4.5 14.25V4.5L2.25 1.5H13.5V3.75H15C15.4125 3.75 15.7656 3.89688 16.0594 4.19063C16.3531 4.48438 16.5 4.8375 16.5 5.25V9C16.5 9.4125 16.3531 9.76562 16.0594 10.0594C15.7656 10.3531 15.4125 10.5 15 10.5H13.5V14.25H4.5ZM6 12.75H12V3H5.25L6 3.975V12.75ZM13.5 9H15V5.25H13.5V9ZM9 12H11.25V3.75H9V12ZM2.25 16.5V15H15.75V16.5H2.25Z" fill="#282828"/>
</g>
</svg>
