<svg width="84" height="101" viewBox="0 0 84 101" fill="none" xmlns="http://www.w3.org/2000/svg">
<path d="M29.9216 31.4036L33.3931 26.8473L37.404 22.2031C37.689 21.8731 38.1033 21.6835 38.5393 21.6835H46.1331H53.7269C54.1628 21.6835 54.5772 21.8731 54.8622 22.2031L58.8731 26.8473L62.3446 31.4036C62.5436 31.6649 62.6514 31.9843 62.6514 32.3127V42.0917V61C62.6514 61.8284 61.9799 62.5 61.1514 62.5H31.1147C30.2863 62.5 29.6147 61.8284 29.6147 61V42.0917V32.3127C29.6147 31.9843 29.7225 31.6649 29.9216 31.4036Z" stroke="#282828"/>
<path d="M46.133 26.5321C46.133 25.7786 46.133 21.7406 46.133 17.7958C46.133 14.4138 43.7006 11.5219 40.3686 10.9424L39.429 10.779C36.8035 10.3224 34.2083 11.7296 33.1585 14.1791V14.1791C31.3886 18.309 25.7781 18.9042 23.181 15.2377L20.8486 11.945" stroke="#282828" stroke-linecap="round"/>
<path d="M15.9054 86.084C15.1774 86.084 14.4774 85.9673 13.8054 85.734C13.1428 85.4913 12.6294 85.1833 12.2654 84.81L12.6714 84.012C13.0168 84.348 13.4788 84.6327 14.0574 84.866C14.6454 85.09 15.2614 85.202 15.9054 85.202C16.5214 85.202 17.0208 85.1273 17.4034 84.978C17.7954 84.8193 18.0801 84.6093 18.2574 84.348C18.4441 84.0867 18.5374 83.7973 18.5374 83.48C18.5374 83.0973 18.4254 82.7893 18.2014 82.556C17.9868 82.3227 17.7021 82.1407 17.3474 82.01C16.9928 81.87 16.6008 81.7487 16.1714 81.646C15.7421 81.5433 15.3128 81.436 14.8834 81.324C14.4541 81.2027 14.0574 81.044 13.6934 80.848C13.3388 80.652 13.0494 80.3953 12.8254 80.078C12.6108 79.7513 12.5034 79.3267 12.5034 78.804C12.5034 78.3187 12.6294 77.8753 12.8814 77.474C13.1428 77.0633 13.5394 76.7367 14.0714 76.494C14.6034 76.242 15.2848 76.116 16.1154 76.116C16.6661 76.116 17.2121 76.1953 17.7534 76.354C18.2948 76.5033 18.7614 76.7133 19.1534 76.984L18.8034 77.81C18.3834 77.53 17.9354 77.3247 17.4594 77.194C16.9928 77.0633 16.5401 76.998 16.1014 76.998C15.5134 76.998 15.0281 77.0773 14.6454 77.236C14.2628 77.3947 13.9781 77.6093 13.7914 77.88C13.6141 78.1413 13.5254 78.44 13.5254 78.776C13.5254 79.1587 13.6328 79.4667 13.8474 79.7C14.0714 79.9333 14.3608 80.1153 14.7154 80.246C15.0794 80.3767 15.4761 80.4933 15.9054 80.596C16.3348 80.6987 16.7594 80.8107 17.1794 80.932C17.6088 81.0533 18.0008 81.212 18.3554 81.408C18.7194 81.5947 19.0088 81.8467 19.2234 82.164C19.4474 82.4813 19.5594 82.8967 19.5594 83.41C19.5594 83.886 19.4288 84.3293 19.1674 84.74C18.9061 85.1413 18.5048 85.468 17.9634 85.72C17.4314 85.9627 16.7454 86.084 15.9054 86.084ZM26.4627 86V84.376L26.4207 84.11V81.394C26.4207 80.7687 26.2434 80.288 25.8887 79.952C25.5434 79.616 25.0254 79.448 24.3347 79.448C23.8587 79.448 23.406 79.5273 22.9767 79.686C22.5474 79.8447 22.1834 80.0547 21.8847 80.316L21.4367 79.574C21.81 79.2567 22.258 79.014 22.7807 78.846C23.3034 78.6687 23.854 78.58 24.4327 78.58C25.3847 78.58 26.1174 78.818 26.6307 79.294C27.1534 79.7607 27.4147 80.4747 27.4147 81.436V86H26.4627ZM23.9287 86.07C23.378 86.07 22.8974 85.9813 22.4867 85.804C22.0854 85.6173 21.7774 85.3653 21.5627 85.048C21.348 84.7213 21.2407 84.348 21.2407 83.928C21.2407 83.5453 21.3294 83.2 21.5067 82.892C21.6934 82.5747 21.992 82.3227 22.4027 82.136C22.8227 81.94 23.3827 81.842 24.0827 81.842H26.6167V82.584H24.1107C23.4014 82.584 22.9067 82.71 22.6267 82.962C22.356 83.214 22.2207 83.5267 22.2207 83.9C22.2207 84.32 22.384 84.656 22.7107 84.908C23.0374 85.16 23.4947 85.286 24.0827 85.286C24.6427 85.286 25.1234 85.16 25.5247 84.908C25.9354 84.6467 26.234 84.2733 26.4207 83.788L26.6447 84.474C26.458 84.9593 26.1314 85.3467 25.6647 85.636C25.2074 85.9253 24.6287 86.07 23.9287 86.07ZM39.5485 78.58C40.1458 78.58 40.6638 78.6967 41.1025 78.93C41.5505 79.154 41.8958 79.4993 42.1385 79.966C42.3905 80.4327 42.5165 81.0207 42.5165 81.73V86H41.5225V81.828C41.5225 81.0533 41.3358 80.47 40.9625 80.078C40.5985 79.6767 40.0805 79.476 39.4085 79.476C38.9045 79.476 38.4658 79.5833 38.0925 79.798C37.7285 80.0033 37.4438 80.3067 37.2385 80.708C37.0425 81.1 36.9445 81.576 36.9445 82.136V86H35.9505V81.828C35.9505 81.0533 35.7638 80.47 35.3905 80.078C35.0172 79.6767 34.4945 79.476 33.8225 79.476C33.3278 79.476 32.8938 79.5833 32.5205 79.798C32.1472 80.0033 31.8578 80.3067 31.6525 80.708C31.4565 81.1 31.3585 81.576 31.3585 82.136V86H30.3645V78.65H31.3165V80.638L31.1625 80.288C31.3865 79.756 31.7458 79.3407 32.2405 79.042C32.7445 78.734 33.3372 78.58 34.0185 78.58C34.7372 78.58 35.3485 78.762 35.8525 79.126C36.3565 79.4807 36.6832 80.0173 36.8325 80.736L36.4405 80.582C36.6552 79.9847 37.0332 79.504 37.5745 79.14C38.1252 78.7667 38.7832 78.58 39.5485 78.58ZM49.2562 86.07C48.6215 86.07 48.0475 85.9253 47.5342 85.636C47.0208 85.3373 46.6102 84.9127 46.3022 84.362C46.0035 83.802 45.8542 83.1207 45.8542 82.318C45.8542 81.5153 46.0035 80.8387 46.3022 80.288C46.6008 79.728 47.0068 79.3033 47.5202 79.014C48.0335 78.7247 48.6122 78.58 49.2562 78.58C49.9562 78.58 50.5815 78.7387 51.1322 79.056C51.6922 79.364 52.1308 79.8027 52.4482 80.372C52.7655 80.932 52.9242 81.5807 52.9242 82.318C52.9242 83.0647 52.7655 83.718 52.4482 84.278C52.1308 84.838 51.6922 85.2767 51.1322 85.594C50.5815 85.9113 49.9562 86.07 49.2562 86.07ZM45.4622 88.716V78.65H46.4142V80.862L46.3162 82.332L46.4562 83.816V88.716H45.4622ZM49.1862 85.188C49.7088 85.188 50.1755 85.0713 50.5862 84.838C50.9968 84.5953 51.3235 84.2593 51.5662 83.83C51.8088 83.3913 51.9302 82.8873 51.9302 82.318C51.9302 81.7487 51.8088 81.2493 51.5662 80.82C51.3235 80.3907 50.9968 80.0547 50.5862 79.812C50.1755 79.5693 49.7088 79.448 49.1862 79.448C48.6635 79.448 48.1922 79.5693 47.7722 79.812C47.3615 80.0547 47.0348 80.3907 46.7922 80.82C46.5588 81.2493 46.4422 81.7487 46.4422 82.318C46.4422 82.8873 46.5588 83.3913 46.7922 83.83C47.0348 84.2593 47.3615 84.5953 47.7722 84.838C48.1922 85.0713 48.6635 85.188 49.1862 85.188ZM55.2005 86V75.612H56.1945V86H55.2005ZM62.3322 86.07C61.5669 86.07 60.8949 85.9113 60.3162 85.594C59.7376 85.2673 59.2849 84.824 58.9582 84.264C58.6316 83.6947 58.4682 83.046 58.4682 82.318C58.4682 81.59 58.6222 80.946 58.9302 80.386C59.2476 79.826 59.6769 79.3873 60.2182 79.07C60.7689 78.7433 61.3849 78.58 62.0662 78.58C62.7569 78.58 63.3682 78.7387 63.9002 79.056C64.4416 79.364 64.8662 79.8027 65.1742 80.372C65.4822 80.932 65.6362 81.5807 65.6362 82.318C65.6362 82.3647 65.6316 82.416 65.6222 82.472C65.6222 82.5187 65.6222 82.57 65.6222 82.626H59.2242V81.884H65.0902L64.6982 82.178C64.6982 81.646 64.5816 81.1747 64.3482 80.764C64.1242 80.344 63.8162 80.0173 63.4242 79.784C63.0322 79.5507 62.5796 79.434 62.0662 79.434C61.5622 79.434 61.1096 79.5507 60.7082 79.784C60.3069 80.0173 59.9942 80.344 59.7702 80.764C59.5462 81.184 59.4342 81.6647 59.4342 82.206V82.36C59.4342 82.92 59.5556 83.4147 59.7982 83.844C60.0502 84.264 60.3956 84.5953 60.8342 84.838C61.2822 85.0713 61.7909 85.188 62.3602 85.188C62.8082 85.188 63.2236 85.1087 63.6062 84.95C63.9982 84.7913 64.3342 84.5487 64.6142 84.222L65.1742 84.866C64.8476 85.258 64.4369 85.5567 63.9422 85.762C63.4569 85.9673 62.9202 86.07 62.3322 86.07ZM67.9094 86V78.65H68.8614V80.652L68.7634 80.302C68.9688 79.742 69.3141 79.3173 69.7994 79.028C70.2848 78.7293 70.8868 78.58 71.6054 78.58V79.546C71.5681 79.546 71.5308 79.546 71.4934 79.546C71.4561 79.5367 71.4188 79.532 71.3814 79.532C70.6068 79.532 70.0001 79.77 69.5614 80.246C69.1228 80.7127 68.9034 81.38 68.9034 82.248V86H67.9094Z" fill="#282828"/>
</svg>
