<svg width="84" height="101" viewBox="0 0 84 101" fill="none" xmlns="http://www.w3.org/2000/svg">
<path d="M38.0874 41.0603C37.5874 41.0603 37.1108 40.9803 36.6574 40.8203C36.2041 40.6536 35.8441 40.4336 35.5774 40.1603L35.9274 39.5903C36.1474 39.8236 36.4474 40.0169 36.8274 40.1703C37.2141 40.3236 37.6308 40.4003 38.0774 40.4003C38.6708 40.4003 39.1208 40.2703 39.4274 40.0103C39.7408 39.7436 39.8974 39.3969 39.8974 38.9703C39.8974 38.6703 39.8241 38.4136 39.6774 38.2003C39.5374 37.9803 39.2974 37.8103 38.9574 37.6903C38.6174 37.5703 38.1508 37.5103 37.5574 37.5103H36.0674L36.4274 34.0003H40.2574V34.6403H36.7174L37.0874 34.2903L36.7774 37.2303L36.4074 36.8703H37.7174C38.4241 36.8703 38.9908 36.9569 39.4174 37.1303C39.8441 37.3036 40.1508 37.5469 40.3374 37.8603C40.5308 38.1669 40.6274 38.5269 40.6274 38.9403C40.6274 39.3336 40.5341 39.6936 40.3474 40.0203C40.1608 40.3403 39.8808 40.5936 39.5074 40.7803C39.1341 40.9669 38.6608 41.0603 38.0874 41.0603ZM44.3315 41.0603C43.7915 41.0603 43.3115 40.9203 42.8915 40.6403C42.4715 40.3536 42.1415 39.9469 41.9015 39.4203C41.6615 38.8869 41.5415 38.2469 41.5415 37.5003C41.5415 36.7536 41.6615 36.1169 41.9015 35.5903C42.1415 35.0569 42.4715 34.6503 42.8915 34.3703C43.3115 34.0836 43.7915 33.9403 44.3315 33.9403C44.8715 33.9403 45.3515 34.0836 45.7715 34.3703C46.1915 34.6503 46.5215 35.0569 46.7615 35.5903C47.0082 36.1169 47.1315 36.7536 47.1315 37.5003C47.1315 38.2469 47.0082 38.8869 46.7615 39.4203C46.5215 39.9469 46.1915 40.3536 45.7715 40.6403C45.3515 40.9203 44.8715 41.0603 44.3315 41.0603ZM44.3315 40.4003C44.7448 40.4003 45.1048 40.2903 45.4115 40.0703C45.7182 39.8436 45.9582 39.5169 46.1315 39.0903C46.3048 38.6569 46.3915 38.1269 46.3915 37.5003C46.3915 36.8736 46.3048 36.3469 46.1315 35.9203C45.9582 35.4869 45.7182 35.1603 45.4115 34.9403C45.1048 34.7136 44.7448 34.6003 44.3315 34.6003C43.9315 34.6003 43.5748 34.7136 43.2615 34.9403C42.9482 35.1603 42.7048 35.4869 42.5315 35.9203C42.3582 36.3469 42.2715 36.8736 42.2715 37.5003C42.2715 38.1269 42.3582 38.6569 42.5315 39.0903C42.7048 39.5169 42.9482 39.8436 43.2615 40.0703C43.5748 40.2903 43.9315 40.4003 44.3315 40.4003Z" fill="#282828"/>
<path d="M30 15H54" stroke="#282828" stroke-linecap="round"/>
<path d="M29.8593 11.8871C29.9183 11.1047 30.5704 10.5 31.355 10.5H52.6456C53.4302 10.5 54.0823 11.1047 54.1413 11.8871L57.8395 60.8873C57.9052 61.7577 57.2166 62.5002 56.3437 62.5002H27.6569C26.784 62.5002 26.0954 61.7577 26.1611 60.8873L29.8593 11.8871Z" stroke="#282828"/>
<path d="M28.5 25.4999L23.3609 39.8894C21.8327 44.1685 21.8071 48.8404 23.2883 53.136L26 61" stroke="#282828" stroke-linecap="round"/>
<path d="M55.5 25.4999L60.678 39.9983C62.1824 44.2108 62.2313 48.806 60.8168 53.0496L58 61.5" stroke="#282828" stroke-linecap="round"/>
<path d="M14.2468 86.0842C13.5468 86.0842 12.8795 85.9722 12.2448 85.7482C11.6101 85.5148 11.1061 85.2068 10.7328 84.8242L11.2228 84.0262C11.5308 84.3528 11.9508 84.6235 12.4828 84.8382C13.0241 85.0528 13.6075 85.1602 14.2328 85.1602C15.0635 85.1602 15.6935 84.9782 16.1228 84.6142C16.5615 84.2408 16.7808 83.7555 16.7808 83.1582C16.7808 82.7382 16.6781 82.3788 16.4728 82.0802C16.2768 81.7722 15.9408 81.5342 15.4648 81.3662C14.9888 81.1982 14.3355 81.1142 13.5048 81.1142H11.4188L11.9228 76.2002H17.2848V77.0962H12.3288L12.8468 76.6062L12.4128 80.7222L11.8948 80.2182H13.7288C14.7181 80.2182 15.5115 80.3395 16.1088 80.5822C16.7061 80.8248 17.1355 81.1655 17.3968 81.6042C17.6675 82.0335 17.8028 82.5375 17.8028 83.1162C17.8028 83.6668 17.6721 84.1708 17.4108 84.6282C17.1495 85.0762 16.7575 85.4308 16.2348 85.6922C15.7121 85.9535 15.0495 86.0842 14.2468 86.0842ZM23.2385 86.0842C22.4825 86.0842 21.8105 85.8882 21.2225 85.4962C20.6345 85.0948 20.1725 84.5255 19.8365 83.7882C19.5005 83.0415 19.3325 82.1455 19.3325 81.1002C19.3325 80.0548 19.5005 79.1635 19.8365 78.4262C20.1725 77.6795 20.6345 77.1102 21.2225 76.7182C21.8105 76.3168 22.4825 76.1162 23.2385 76.1162C23.9945 76.1162 24.6665 76.3168 25.2545 76.7182C25.8425 77.1102 26.3045 77.6795 26.6405 78.4262C26.9858 79.1635 27.1585 80.0548 27.1585 81.1002C27.1585 82.1455 26.9858 83.0415 26.6405 83.7882C26.3045 84.5255 25.8425 85.0948 25.2545 85.4962C24.6665 85.8882 23.9945 86.0842 23.2385 86.0842ZM23.2385 85.1602C23.8172 85.1602 24.3212 85.0062 24.7505 84.6982C25.1798 84.3808 25.5158 83.9235 25.7585 83.3262C26.0012 82.7195 26.1225 81.9775 26.1225 81.1002C26.1225 80.2228 26.0012 79.4855 25.7585 78.8882C25.5158 78.2815 25.1798 77.8242 24.7505 77.5162C24.3212 77.1988 23.8172 77.0402 23.2385 77.0402C22.6785 77.0402 22.1792 77.1988 21.7405 77.5162C21.3018 77.8242 20.9612 78.2815 20.7185 78.8882C20.4758 79.4855 20.3545 80.2228 20.3545 81.1002C20.3545 81.9775 20.4758 82.7195 20.7185 83.3262C20.9612 83.9235 21.3018 84.3808 21.7405 84.6982C22.1792 85.0062 22.6785 85.1602 23.2385 85.1602ZM36.5601 88.7862C35.8881 88.7862 35.2441 88.6882 34.6281 88.4922C34.0121 88.2962 33.5128 88.0162 33.1301 87.6522L33.6341 86.8962C33.9794 87.2042 34.4041 87.4468 34.9081 87.6242C35.4214 87.8108 35.9628 87.9042 36.5321 87.9042C37.4654 87.9042 38.1514 87.6848 38.5901 87.2462C39.0288 86.8168 39.2481 86.1448 39.2481 85.2302V83.3962L39.3881 82.1362L39.2901 80.8762V78.6502H40.2421V85.1042C40.2421 86.3735 39.9294 87.3022 39.3041 87.8902C38.6881 88.4875 37.7734 88.7862 36.5601 88.7862ZM36.3781 85.7202C35.6781 85.7202 35.0481 85.5708 34.4881 85.2722C33.9281 84.9642 33.4848 84.5395 33.1581 83.9982C32.8408 83.4568 32.6821 82.8362 32.6821 82.1362C32.6821 81.4362 32.8408 80.8202 33.1581 80.2882C33.4848 79.7468 33.9281 79.3268 34.4881 79.0282C35.0481 78.7295 35.6781 78.5802 36.3781 78.5802C37.0314 78.5802 37.6194 78.7155 38.1421 78.9862C38.6648 79.2568 39.0801 79.6582 39.3881 80.1902C39.6961 80.7222 39.8501 81.3708 39.8501 82.1362C39.8501 82.9015 39.6961 83.5502 39.3881 84.0822C39.0801 84.6142 38.6648 85.0202 38.1421 85.3002C37.6194 85.5802 37.0314 85.7202 36.3781 85.7202ZM36.4761 84.8382C37.0174 84.8382 37.4981 84.7262 37.9181 84.5022C38.3381 84.2688 38.6694 83.9515 38.9121 83.5502C39.1548 83.1395 39.2761 82.6682 39.2761 82.1362C39.2761 81.6042 39.1548 81.1375 38.9121 80.7362C38.6694 80.3348 38.3381 80.0222 37.9181 79.7982C37.4981 79.5648 37.0174 79.4482 36.4761 79.4482C35.9441 79.4482 35.4634 79.5648 35.0341 79.7982C34.6141 80.0222 34.2828 80.3348 34.0401 80.7362C33.8068 81.1375 33.6901 81.6042 33.6901 82.1362C33.6901 82.6682 33.8068 83.1395 34.0401 83.5502C34.2828 83.9515 34.6141 84.2688 35.0341 84.5022C35.4634 84.7262 35.9441 84.8382 36.4761 84.8382ZM50.9661 86.0702C50.3221 86.0702 49.7435 85.9255 49.2301 85.6362C48.7168 85.3375 48.3108 84.9082 48.0121 84.3482C47.7135 83.7882 47.5641 83.1115 47.5641 82.3182C47.5641 81.5155 47.7135 80.8388 48.0121 80.2882C48.3201 79.7282 48.7308 79.3035 49.2441 79.0142C49.7575 78.7248 50.3315 78.5802 50.9661 78.5802C51.6661 78.5802 52.2915 78.7388 52.8421 79.0562C53.4021 79.3642 53.8408 79.7982 54.1581 80.3582C54.4755 80.9182 54.6341 81.5715 54.6341 82.3182C54.6341 83.0555 54.4755 83.7088 54.1581 84.2782C53.8408 84.8382 53.4021 85.2768 52.8421 85.5942C52.2915 85.9115 51.6661 86.0702 50.9661 86.0702ZM47.1721 86.0002V75.6122H48.1661V80.8202L48.0261 82.3042L48.1241 83.7882V86.0002H47.1721ZM50.8961 85.1882C51.4188 85.1882 51.8855 85.0715 52.2961 84.8382C52.7068 84.5955 53.0335 84.2595 53.2761 83.8302C53.5188 83.3915 53.6401 82.8875 53.6401 82.3182C53.6401 81.7395 53.5188 81.2355 53.2761 80.8062C53.0335 80.3768 52.7068 80.0455 52.2961 79.8122C51.8855 79.5695 51.4188 79.4482 50.8961 79.4482C50.3735 79.4482 49.9021 79.5695 49.4821 79.8122C49.0715 80.0455 48.7448 80.3768 48.5021 80.8062C48.2688 81.2355 48.1521 81.7395 48.1521 82.3182C48.1521 82.8875 48.2688 83.3915 48.5021 83.8302C48.7448 84.2595 49.0715 84.5955 49.4821 84.8382C49.9021 85.0715 50.3735 85.1882 50.8961 85.1882ZM61.4754 86.0002V84.3762L61.4334 84.1102V81.3942C61.4334 80.7688 61.2561 80.2882 60.9014 79.9522C60.5561 79.6162 60.0381 79.4482 59.3474 79.4482C58.8714 79.4482 58.4187 79.5275 57.9894 79.6862C57.5601 79.8448 57.1961 80.0548 56.8974 80.3162L56.4494 79.5742C56.8227 79.2568 57.2707 79.0142 57.7934 78.8462C58.3161 78.6688 58.8667 78.5802 59.4454 78.5802C60.3974 78.5802 61.1301 78.8182 61.6434 79.2942C62.1661 79.7608 62.4274 80.4748 62.4274 81.4362V86.0002H61.4754ZM58.9414 86.0702C58.3907 86.0702 57.9101 85.9815 57.4994 85.8042C57.0981 85.6175 56.7901 85.3655 56.5754 85.0482C56.3607 84.7215 56.2534 84.3482 56.2534 83.9282C56.2534 83.5455 56.3421 83.2002 56.5194 82.8922C56.7061 82.5748 57.0047 82.3228 57.4154 82.1362C57.8354 81.9402 58.3954 81.8422 59.0954 81.8422H61.6294V82.5842H59.1234C58.4141 82.5842 57.9194 82.7102 57.6394 82.9622C57.3687 83.2142 57.2334 83.5268 57.2334 83.9002C57.2334 84.3202 57.3967 84.6562 57.7234 84.9082C58.0501 85.1602 58.5074 85.2862 59.0954 85.2862C59.6554 85.2862 60.1361 85.1602 60.5374 84.9082C60.9481 84.6468 61.2467 84.2735 61.4334 83.7882L61.6574 84.4742C61.4707 84.9595 61.1441 85.3468 60.6774 85.6362C60.2201 85.9255 59.6414 86.0702 58.9414 86.0702ZM68.5132 88.7862C67.8412 88.7862 67.1972 88.6882 66.5812 88.4922C65.9652 88.2962 65.4659 88.0162 65.0832 87.6522L65.5872 86.8962C65.9325 87.2042 66.3572 87.4468 66.8612 87.6242C67.3745 87.8108 67.9159 87.9042 68.4852 87.9042C69.4185 87.9042 70.1045 87.6848 70.5432 87.2462C70.9819 86.8168 71.2012 86.1448 71.2012 85.2302V83.3962L71.3412 82.1362L71.2432 80.8762V78.6502H72.1952V85.1042C72.1952 86.3735 71.8825 87.3022 71.2572 87.8902C70.6412 88.4875 69.7265 88.7862 68.5132 88.7862ZM68.3312 85.7202C67.6312 85.7202 67.0012 85.5708 66.4412 85.2722C65.8812 84.9642 65.4379 84.5395 65.1112 83.9982C64.7939 83.4568 64.6352 82.8362 64.6352 82.1362C64.6352 81.4362 64.7939 80.8202 65.1112 80.2882C65.4379 79.7468 65.8812 79.3268 66.4412 79.0282C67.0012 78.7295 67.6312 78.5802 68.3312 78.5802C68.9845 78.5802 69.5725 78.7155 70.0952 78.9862C70.6179 79.2568 71.0332 79.6582 71.3412 80.1902C71.6492 80.7222 71.8032 81.3708 71.8032 82.1362C71.8032 82.9015 71.6492 83.5502 71.3412 84.0822C71.0332 84.6142 70.6179 85.0202 70.0952 85.3002C69.5725 85.5802 68.9845 85.7202 68.3312 85.7202ZM68.4292 84.8382C68.9705 84.8382 69.4512 84.7262 69.8712 84.5022C70.2912 84.2688 70.6225 83.9515 70.8652 83.5502C71.1079 83.1395 71.2292 82.6682 71.2292 82.1362C71.2292 81.6042 71.1079 81.1375 70.8652 80.7362C70.6225 80.3348 70.2912 80.0222 69.8712 79.7982C69.4512 79.5648 68.9705 79.4482 68.4292 79.4482C67.8972 79.4482 67.4165 79.5648 66.9872 79.7982C66.5672 80.0222 66.2359 80.3348 65.9932 80.7362C65.7599 81.1375 65.6432 81.6042 65.6432 82.1362C65.6432 82.6682 65.7599 83.1395 65.9932 83.5502C66.2359 83.9515 66.5672 84.2688 66.9872 84.5022C67.4165 84.7262 67.8972 84.8382 68.4292 84.8382Z" fill="#282828"/>
</svg>
