<svg width="84" height="101" viewBox="0 0 84 101" fill="none" xmlns="http://www.w3.org/2000/svg">
<path d="M35.3123 41V34.3L35.6323 34.64H33.6623V34H36.0323V41H35.3123ZM40.4955 41.06C39.9555 41.06 39.4755 40.92 39.0555 40.64C38.6355 40.3533 38.3055 39.9467 38.0655 39.42C37.8255 38.8867 37.7055 38.2467 37.7055 37.5C37.7055 36.7533 37.8255 36.1167 38.0655 35.59C38.3055 35.0567 38.6355 34.65 39.0555 34.37C39.4755 34.0833 39.9555 33.94 40.4955 33.94C41.0355 33.94 41.5155 34.0833 41.9355 34.37C42.3555 34.65 42.6855 35.0567 42.9255 35.59C43.1722 36.1167 43.2955 36.7533 43.2955 37.5C43.2955 38.2467 43.1722 38.8867 42.9255 39.42C42.6855 39.9467 42.3555 40.3533 41.9355 40.64C41.5155 40.92 41.0355 41.06 40.4955 41.06ZM40.4955 40.4C40.9089 40.4 41.2689 40.29 41.5755 40.07C41.8822 39.8433 42.1222 39.5167 42.2955 39.09C42.4689 38.6567 42.5555 38.1267 42.5555 37.5C42.5555 36.8733 42.4689 36.3467 42.2955 35.92C42.1222 35.4867 41.8822 35.16 41.5755 34.94C41.2689 34.7133 40.9089 34.6 40.4955 34.6C40.0955 34.6 39.7389 34.7133 39.4255 34.94C39.1122 35.16 38.8689 35.4867 38.6955 35.92C38.5222 36.3467 38.4355 36.8733 38.4355 37.5C38.4355 38.1267 38.5222 38.6567 38.6955 39.09C38.8689 39.5167 39.1122 39.8433 39.4255 40.07C39.7389 40.29 40.0955 40.4 40.4955 40.4ZM47.1166 41.06C46.5766 41.06 46.0966 40.92 45.6766 40.64C45.2566 40.3533 44.9266 39.9467 44.6866 39.42C44.4466 38.8867 44.3266 38.2467 44.3266 37.5C44.3266 36.7533 44.4466 36.1167 44.6866 35.59C44.9266 35.0567 45.2566 34.65 45.6766 34.37C46.0966 34.0833 46.5766 33.94 47.1166 33.94C47.6566 33.94 48.1366 34.0833 48.5566 34.37C48.9766 34.65 49.3066 35.0567 49.5466 35.59C49.7933 36.1167 49.9166 36.7533 49.9166 37.5C49.9166 38.2467 49.7933 38.8867 49.5466 39.42C49.3066 39.9467 48.9766 40.3533 48.5566 40.64C48.1366 40.92 47.6566 41.06 47.1166 41.06ZM47.1166 40.4C47.53 40.4 47.89 40.29 48.1966 40.07C48.5033 39.8433 48.7433 39.5167 48.9166 39.09C49.09 38.6567 49.1766 38.1267 49.1766 37.5C49.1766 36.8733 49.09 36.3467 48.9166 35.92C48.7433 35.4867 48.5033 35.16 48.1966 34.94C47.89 34.7133 47.53 34.6 47.1166 34.6C46.7166 34.6 46.36 34.7133 46.0466 34.94C45.7333 35.16 45.49 35.4867 45.3166 35.92C45.1433 36.3467 45.0566 36.8733 45.0566 37.5C45.0566 38.1267 45.1433 38.6567 45.3166 39.09C45.49 39.5167 45.7333 39.8433 46.0466 40.07C46.36 40.29 46.7166 40.4 47.1166 40.4Z" fill="#817c7c"/>
<path d="M30 15H54" stroke="#817c7c" stroke-linecap="round"/>
<path d="M29.8593 11.8871C29.9183 11.1047 30.5704 10.5 31.355 10.5H52.6456C53.4302 10.5 54.0823 11.1047 54.1413 11.8871L57.8395 60.8873C57.9052 61.7577 57.2166 62.5002 56.3437 62.5002H27.6569C26.784 62.5002 26.0954 61.7577 26.1611 60.8873L29.8593 11.8871Z" stroke="#817c7c"/>
<path d="M28.5 25.4999L23.3609 39.8894C21.8327 44.1685 21.8071 48.8404 23.2883 53.136L26 61" stroke="#817c7c" stroke-linecap="round"/>
<path d="M55.5 25.4999L60.678 39.9983C62.1824 44.2108 62.2313 48.806 60.8168 53.0496L58 61.5" stroke="#817c7c" stroke-linecap="round"/>
<path d="M9.53659 86.0002V76.6202L9.98459 77.0962H7.22659V76.2002H10.5446V86.0002H9.53659ZM17.0432 86.0842C16.2872 86.0842 15.6152 85.8882 15.0272 85.4962C14.4392 85.0948 13.9772 84.5255 13.6412 83.7882C13.3052 83.0415 13.1372 82.1455 13.1372 81.1002C13.1372 80.0548 13.3052 79.1635 13.6412 78.4262C13.9772 77.6795 14.4392 77.1102 15.0272 76.7182C15.6152 76.3168 16.2872 76.1162 17.0432 76.1162C17.7992 76.1162 18.4712 76.3168 19.0592 76.7182C19.6472 77.1102 20.1092 77.6795 20.4452 78.4262C20.7905 79.1635 20.9632 80.0548 20.9632 81.1002C20.9632 82.1455 20.7905 83.0415 20.4452 83.7882C20.1092 84.5255 19.6472 85.0948 19.0592 85.4962C18.4712 85.8882 17.7992 86.0842 17.0432 86.0842ZM17.0432 85.1602C17.6218 85.1602 18.1258 85.0062 18.5552 84.6982C18.9845 84.3808 19.3205 83.9235 19.5632 83.3262C19.8058 82.7195 19.9272 81.9775 19.9272 81.1002C19.9272 80.2228 19.8058 79.4855 19.5632 78.8882C19.3205 78.2815 18.9845 77.8242 18.5552 77.5162C18.1258 77.1988 17.6218 77.0402 17.0432 77.0402C16.4832 77.0402 15.9838 77.1988 15.5452 77.5162C15.1065 77.8242 14.7658 78.2815 14.5232 78.8882C14.2805 79.4855 14.1592 80.2228 14.1592 81.1002C14.1592 81.9775 14.2805 82.7195 14.5232 83.3262C14.7658 83.9235 15.1065 84.3808 15.5452 84.6982C15.9838 85.0062 16.4832 85.1602 17.0432 85.1602ZM26.5627 86.0842C25.8067 86.0842 25.1347 85.8882 24.5467 85.4962C23.9587 85.0948 23.4967 84.5255 23.1607 83.7882C22.8247 83.0415 22.6567 82.1455 22.6567 81.1002C22.6567 80.0548 22.8247 79.1635 23.1607 78.4262C23.4967 77.6795 23.9587 77.1102 24.5467 76.7182C25.1347 76.3168 25.8067 76.1162 26.5627 76.1162C27.3187 76.1162 27.9907 76.3168 28.5787 76.7182C29.1667 77.1102 29.6287 77.6795 29.9647 78.4262C30.31 79.1635 30.4827 80.0548 30.4827 81.1002C30.4827 82.1455 30.31 83.0415 29.9647 83.7882C29.6287 84.5255 29.1667 85.0948 28.5787 85.4962C27.9907 85.8882 27.3187 86.0842 26.5627 86.0842ZM26.5627 85.1602C27.1414 85.1602 27.6454 85.0062 28.0747 84.6982C28.504 84.3808 28.84 83.9235 29.0827 83.3262C29.3254 82.7195 29.4467 81.9775 29.4467 81.1002C29.4467 80.2228 29.3254 79.4855 29.0827 78.8882C28.84 78.2815 28.504 77.8242 28.0747 77.5162C27.6454 77.1988 27.1414 77.0402 26.5627 77.0402C26.0027 77.0402 25.5034 77.1988 25.0647 77.5162C24.626 77.8242 24.2854 78.2815 24.0427 78.8882C23.8 79.4855 23.6787 80.2228 23.6787 81.1002C23.6787 81.9775 23.8 82.7195 24.0427 83.3262C24.2854 83.9235 24.626 84.3808 25.0647 84.6982C25.5034 85.0062 26.0027 85.1602 26.5627 85.1602ZM39.8843 88.7862C39.2123 88.7862 38.5683 88.6882 37.9523 88.4922C37.3363 88.2962 36.837 88.0162 36.4543 87.6522L36.9583 86.8962C37.3036 87.2042 37.7283 87.4468 38.2323 87.6242C38.7456 87.8108 39.287 87.9042 39.8563 87.9042C40.7896 87.9042 41.4756 87.6848 41.9143 87.2462C42.353 86.8168 42.5723 86.1448 42.5723 85.2302V83.3962L42.7123 82.1362L42.6143 80.8762V78.6502H43.5663V85.1042C43.5663 86.3735 43.2536 87.3022 42.6283 87.8902C42.0123 88.4875 41.0976 88.7862 39.8843 88.7862ZM39.7023 85.7202C39.0023 85.7202 38.3723 85.5708 37.8123 85.2722C37.2523 84.9642 36.809 84.5395 36.4823 83.9982C36.165 83.4568 36.0063 82.8362 36.0063 82.1362C36.0063 81.4362 36.165 80.8202 36.4823 80.2882C36.809 79.7468 37.2523 79.3268 37.8123 79.0282C38.3723 78.7295 39.0023 78.5802 39.7023 78.5802C40.3556 78.5802 40.9436 78.7155 41.4663 78.9862C41.989 79.2568 42.4043 79.6582 42.7123 80.1902C43.0203 80.7222 43.1743 81.3708 43.1743 82.1362C43.1743 82.9015 43.0203 83.5502 42.7123 84.0822C42.4043 84.6142 41.989 85.0202 41.4663 85.3002C40.9436 85.5802 40.3556 85.7202 39.7023 85.7202ZM39.8003 84.8382C40.3416 84.8382 40.8223 84.7262 41.2423 84.5022C41.6623 84.2688 41.9936 83.9515 42.2363 83.5502C42.479 83.1395 42.6003 82.6682 42.6003 82.1362C42.6003 81.6042 42.479 81.1375 42.2363 80.7362C41.9936 80.3348 41.6623 80.0222 41.2423 79.7982C40.8223 79.5648 40.3416 79.4482 39.8003 79.4482C39.2683 79.4482 38.7876 79.5648 38.3583 79.7982C37.9383 80.0222 37.607 80.3348 37.3643 80.7362C37.131 81.1375 37.0143 81.6042 37.0143 82.1362C37.0143 82.6682 37.131 83.1395 37.3643 83.5502C37.607 83.9515 37.9383 84.2688 38.3583 84.5022C38.7876 84.7262 39.2683 84.8382 39.8003 84.8382ZM54.2904 86.0702C53.6464 86.0702 53.0677 85.9255 52.5544 85.6362C52.041 85.3375 51.635 84.9082 51.3364 84.3482C51.0377 83.7882 50.8884 83.1115 50.8884 82.3182C50.8884 81.5155 51.0377 80.8388 51.3364 80.2882C51.6444 79.7282 52.055 79.3035 52.5684 79.0142C53.0817 78.7248 53.6557 78.5802 54.2904 78.5802C54.9904 78.5802 55.6157 78.7388 56.1664 79.0562C56.7264 79.3642 57.165 79.7982 57.4824 80.3582C57.7997 80.9182 57.9584 81.5715 57.9584 82.3182C57.9584 83.0555 57.7997 83.7088 57.4824 84.2782C57.165 84.8382 56.7264 85.2768 56.1664 85.5942C55.6157 85.9115 54.9904 86.0702 54.2904 86.0702ZM50.4964 86.0002V75.6122H51.4904V80.8202L51.3504 82.3042L51.4484 83.7882V86.0002H50.4964ZM54.2204 85.1882C54.743 85.1882 55.2097 85.0715 55.6204 84.8382C56.031 84.5955 56.3577 84.2595 56.6004 83.8302C56.843 83.3915 56.9644 82.8875 56.9644 82.3182C56.9644 81.7395 56.843 81.2355 56.6004 80.8062C56.3577 80.3768 56.031 80.0455 55.6204 79.8122C55.2097 79.5695 54.743 79.4482 54.2204 79.4482C53.6977 79.4482 53.2264 79.5695 52.8064 79.8122C52.3957 80.0455 52.069 80.3768 51.8264 80.8062C51.593 81.2355 51.4764 81.7395 51.4764 82.3182C51.4764 82.8875 51.593 83.3915 51.8264 83.8302C52.069 84.2595 52.3957 84.5955 52.8064 84.8382C53.2264 85.0715 53.6977 85.1882 54.2204 85.1882ZM64.7996 86.0002V84.3762L64.7576 84.1102V81.3942C64.7576 80.7688 64.5803 80.2882 64.2256 79.9522C63.8803 79.6162 63.3623 79.4482 62.6716 79.4482C62.1956 79.4482 61.743 79.5275 61.3136 79.6862C60.8843 79.8448 60.5203 80.0548 60.2216 80.3162L59.7736 79.5742C60.147 79.2568 60.595 79.0142 61.1176 78.8462C61.6403 78.6688 62.191 78.5802 62.7696 78.5802C63.7216 78.5802 64.4543 78.8182 64.9676 79.2942C65.4903 79.7608 65.7516 80.4748 65.7516 81.4362V86.0002H64.7996ZM62.2656 86.0702C61.715 86.0702 61.2343 85.9815 60.8236 85.8042C60.4223 85.6175 60.1143 85.3655 59.8996 85.0482C59.685 84.7215 59.5776 84.3482 59.5776 83.9282C59.5776 83.5455 59.6663 83.2002 59.8436 82.8922C60.0303 82.5748 60.329 82.3228 60.7396 82.1362C61.1596 81.9402 61.7196 81.8422 62.4196 81.8422H64.9536V82.5842H62.4476C61.7383 82.5842 61.2436 82.7102 60.9636 82.9622C60.693 83.2142 60.5576 83.5268 60.5576 83.9002C60.5576 84.3202 60.721 84.6562 61.0476 84.9082C61.3743 85.1602 61.8316 85.2862 62.4196 85.2862C62.9796 85.2862 63.4603 85.1602 63.8616 84.9082C64.2723 84.6468 64.571 84.2735 64.7576 83.7882L64.9816 84.4742C64.795 84.9595 64.4683 85.3468 64.0016 85.6362C63.5443 85.9255 62.9656 86.0702 62.2656 86.0702ZM71.8374 88.7862C71.1654 88.7862 70.5214 88.6882 69.9054 88.4922C69.2894 88.2962 68.7901 88.0162 68.4074 87.6522L68.9114 86.8962C69.2568 87.2042 69.6814 87.4468 70.1854 87.6242C70.6988 87.8108 71.2401 87.9042 71.8094 87.9042C72.7428 87.9042 73.4288 87.6848 73.8674 87.2462C74.3061 86.8168 74.5254 86.1448 74.5254 85.2302V83.3962L74.6654 82.1362L74.5674 80.8762V78.6502H75.5194V85.1042C75.5194 86.3735 75.2068 87.3022 74.5814 87.8902C73.9654 88.4875 73.0508 88.7862 71.8374 88.7862ZM71.6554 85.7202C70.9554 85.7202 70.3254 85.5708 69.7654 85.2722C69.2054 84.9642 68.7621 84.5395 68.4354 83.9982C68.1181 83.4568 67.9594 82.8362 67.9594 82.1362C67.9594 81.4362 68.1181 80.8202 68.4354 80.2882C68.7621 79.7468 69.2054 79.3268 69.7654 79.0282C70.3254 78.7295 70.9554 78.5802 71.6554 78.5802C72.3088 78.5802 72.8968 78.7155 73.4194 78.9862C73.9421 79.2568 74.3574 79.6582 74.6654 80.1902C74.9734 80.7222 75.1274 81.3708 75.1274 82.1362C75.1274 82.9015 74.9734 83.5502 74.6654 84.0822C74.3574 84.6142 73.9421 85.0202 73.4194 85.3002C72.8968 85.5802 72.3088 85.7202 71.6554 85.7202ZM71.7534 84.8382C72.2948 84.8382 72.7754 84.7262 73.1954 84.5022C73.6154 84.2688 73.9468 83.9515 74.1894 83.5502C74.4321 83.1395 74.5534 82.6682 74.5534 82.1362C74.5534 81.6042 74.4321 81.1375 74.1894 80.7362C73.9468 80.3348 73.6154 80.0222 73.1954 79.7982C72.7754 79.5648 72.2948 79.4482 71.7534 79.4482C71.2214 79.4482 70.7408 79.5648 70.3114 79.7982C69.8914 80.0222 69.5601 80.3348 69.3174 80.7362C69.0841 81.1375 68.9674 81.6042 68.9674 82.1362C68.9674 82.6682 69.0841 83.1395 69.3174 83.5502C69.5601 83.9515 69.8914 84.2688 70.3114 84.5022C70.7408 84.7262 71.2214 84.8382 71.7534 84.8382Z" fill="#817c7c"/>
</svg>
